<svg width="185" height="138" viewBox="0 0 185 138" fill="none" xmlns="http://www.w3.org/2000/svg">
<path d="M11.1766 26.0075C11.1766 27.3946 12.2805 28.4349 13.8673 28.4349C15.4541 28.4349 16.5579 27.3946 16.5579 25.7301V11.9288C16.5579 11.582 16.8339 11.3046 17.1788 11.3046H20.2145C20.5594 11.3046 20.8354 11.582 20.8354 11.9288V26.0075C20.8354 29.6833 18.1447 32.6655 13.9363 32.6655C10.0037 32.6655 6.96812 29.6833 6.96812 26.0075V25.1753C6.96812 24.8285 7.24409 24.5511 7.58905 24.5511H10.6247C10.9696 24.5511 11.2456 24.8285 11.2456 25.1753V26.0075H11.1766Z" fill="#EEEEEE"/>
<path d="M38.4972 17.6158C38.7732 20.1125 38.7732 23.5108 38.4972 26.0075C38.0832 29.6139 35.5306 32.6654 31.3911 32.6654C27.2516 32.6654 24.6989 29.6139 24.285 26.0075C24.009 23.5108 24.009 20.1125 24.285 17.6158C24.6989 14.0094 27.2516 10.9579 31.3911 10.9579C35.5306 10.9579 38.0832 14.0094 38.4972 17.6158ZM28.4934 17.6158C28.2175 20.1125 28.2175 23.5108 28.4934 26.0075C28.6314 27.3252 29.5973 28.4349 31.3911 28.4349C33.1849 28.4349 34.1507 27.3252 34.2887 26.0075C34.5647 23.5108 34.5647 20.1125 34.2887 17.6158C34.1507 16.2981 33.1849 15.1884 31.3911 15.1884C29.5973 15.1884 28.6314 16.2981 28.4934 17.6158Z" fill="#EEEEEE"/>
<path d="M45.3963 26.0075C45.3963 27.3252 46.5002 28.4349 48.225 28.4349C50.0187 28.4349 51.1226 27.3252 51.1226 26.0075V11.9288C51.1226 11.582 51.3986 11.3046 51.7435 11.3046H54.7791C55.1241 11.3046 55.4001 11.582 55.4001 11.9288V26.0769C55.4001 29.6833 52.4334 32.7348 48.294 32.7348C44.2235 32.7348 41.2568 29.7526 41.2568 26.0769V11.9288C41.2568 11.582 41.5328 11.3046 41.8778 11.3046H44.9134C45.2583 11.3046 45.5343 11.582 45.5343 11.9288V26.0075H45.3963Z" fill="#EEEEEE"/>
<path d="M63.1961 23.9269C62.9891 23.9269 62.9201 24.0656 62.9201 24.2043V31.6945C62.9201 32.0413 62.6441 32.3187 62.2992 32.3187H59.3326C58.9876 32.3187 58.7116 32.0413 58.7116 31.6945V11.9288C58.7116 11.582 58.9876 11.3046 59.3326 11.3046H65.8867C69.3363 11.3046 72.165 14.1481 72.165 17.6158C72.165 19.9044 71.1991 21.4996 69.0603 22.956C68.6464 23.2334 68.6464 23.5108 68.8534 23.9269L72.027 31.4171C72.2339 31.9026 72.027 32.3187 71.475 32.3187H68.3704C67.8875 32.3187 67.6805 32.1106 67.4735 31.6945L64.4379 24.2737C64.3689 24.135 64.2309 23.8576 63.886 23.8576H63.1961V23.9269ZM63.1961 15.5352C62.9891 15.5352 62.9201 15.6739 62.9201 15.8126V19.419C62.9201 19.627 63.0581 19.6964 63.1961 19.6964H65.8867C66.9906 19.6964 67.9565 18.7948 67.9565 17.6158C67.9565 16.5061 66.9906 15.5352 65.8867 15.5352H63.1961Z" fill="#EEEEEE"/>
<path d="M88.5849 31.7639C88.5849 32.1106 88.309 32.388 87.964 32.388H84.4454C83.9625 32.388 83.7555 32.1106 83.6175 31.9026L79.5471 21.3609C79.4781 21.1528 79.2711 21.2222 79.2711 21.4302V31.8332C79.2711 32.18 78.9951 32.4574 78.6502 32.4574H75.6835C75.3386 32.4574 75.0626 32.18 75.0626 31.8332V11.9288C75.0626 11.582 75.3386 11.3046 75.6835 11.3046H79.2711C79.754 11.3046 79.961 11.582 80.03 11.8595L84.1005 23.3028C84.1695 23.5108 84.3765 23.4415 84.3765 23.2334V11.9288C84.3765 11.582 84.6524 11.3046 84.9974 11.3046H87.964C88.309 11.3046 88.5849 11.582 88.5849 11.9288V31.7639Z" fill="#EEEEEE"/>
<path d="M95.4151 31.9026C95.3461 32.18 95.1391 32.388 94.8631 32.388H91.6895C91.2066 32.388 90.9996 32.0413 91.0686 31.7639L96.4499 11.7901C96.5189 11.5127 96.7259 11.3046 97.0019 11.3046H101.003C101.279 11.3046 101.486 11.5127 101.555 11.7901L106.868 31.7639C106.937 32.0413 106.73 32.388 106.247 32.388H103.073C102.797 32.388 102.59 32.18 102.521 31.9026L101.624 28.7817C101.555 28.5736 101.417 28.2962 101.141 28.2962H96.5879C96.3119 28.2962 96.174 28.5043 96.105 28.7817L95.4151 31.9026ZM97.3468 23.7882C97.2778 23.9963 97.4158 24.135 97.5538 24.135H100.313C100.52 24.135 100.589 24.0656 100.52 23.7882L99.0716 16.5755C99.0716 16.5061 99.0026 16.4368 98.9336 16.4368H98.8646C98.7956 16.4368 98.7266 16.4368 98.7266 16.5755L97.3468 23.7882Z" fill="#EEEEEE"/>
<path d="M113.905 27.8801C113.905 28.0881 114.043 28.1575 114.181 28.1575H121.632C121.977 28.1575 122.253 28.4349 122.253 28.7817V31.7639C122.253 32.1106 121.977 32.388 121.632 32.388H110.248C109.903 32.388 109.627 32.1106 109.627 31.7639V11.9288C109.627 11.582 109.903 11.3046 110.248 11.3046H113.215C113.56 11.3046 113.836 11.582 113.836 11.9288V27.8801H113.905Z" fill="#EEEEEE"/>
<path d="M129.152 15.6739C129.152 15.4658 129.014 15.3965 128.876 15.3965H125.909C125.564 15.3965 125.288 15.1191 125.288 14.7723V11.9288C125.288 11.582 125.564 11.3046 125.909 11.3046H136.603C136.948 11.3046 137.224 11.582 137.224 11.9288V14.7723C137.224 15.1191 136.948 15.3965 136.603 15.3965H133.636C133.429 15.3965 133.36 15.5352 133.36 15.6739V28.0188C133.36 28.2268 133.498 28.2962 133.636 28.2962H136.948C137.293 28.2962 137.569 28.5736 137.569 28.9204V31.7639C137.569 32.1106 137.293 32.388 136.948 32.388H125.564C125.219 32.388 124.943 32.1106 124.943 31.7639V28.9204C124.943 28.5736 125.219 28.2962 125.564 28.2962H128.876C129.083 28.2962 129.152 28.1575 129.152 28.0188V15.6739V15.6739Z" fill="#EEEEEE"/>
<path d="M146.814 23.7189C143.088 22.8866 140.122 21.2221 140.122 17.3383C140.122 13.8013 143.019 11.0272 146.952 11.0272C150.953 11.0272 153.851 13.8013 153.851 17.3383V17.8238C153.851 18.1706 153.575 18.448 153.23 18.448H150.194C149.849 18.448 149.573 18.1706 149.573 17.8238V17.3383C149.573 16.1593 148.607 15.0497 146.883 15.0497C145.227 15.0497 144.261 15.9513 144.261 17.1303C144.261 18.2399 145.365 19.0028 146.952 19.2802C151.091 20.1125 154.196 21.8463 154.196 26.0769C154.196 29.9607 151.16 32.6654 146.883 32.6654C142.743 32.6654 139.777 29.7526 139.777 26.0769V25.1753C139.777 24.8285 140.053 24.5511 140.397 24.5511H143.433C143.778 24.5511 144.054 24.8285 144.054 25.1753V26.0769C144.054 27.4639 145.089 28.5736 146.952 28.5736C148.745 28.5736 149.918 27.5333 149.918 26.0769C149.918 24.8285 149.021 24.2043 146.814 23.7189Z" fill="#EEEEEE"/>
<path d="M163.993 17.6851C164.062 17.9625 164.475 17.9625 164.544 17.6851L166.2 11.7901C166.269 11.4433 166.476 11.3046 166.821 11.3046H170.961C171.306 11.3046 171.582 11.582 171.582 11.9288V31.7639C171.582 32.1106 171.306 32.388 170.961 32.388H168.063C167.718 32.388 167.442 32.1106 167.442 31.7639V19.8351C167.442 19.6964 167.235 19.627 167.235 19.8351L165.855 24.3431C165.717 24.6898 165.579 24.8285 165.234 24.8285H163.441C163.096 24.8285 162.958 24.6898 162.82 24.3431L161.371 19.8351C161.302 19.6964 161.164 19.6964 161.164 19.8351V31.7639C161.164 32.1106 160.888 32.388 160.543 32.388H157.645C157.3 32.388 157.024 32.1106 157.024 31.7639V11.9288C157.024 11.582 157.3 11.3046 157.645 11.3046H161.785C162.13 11.3046 162.337 11.4433 162.406 11.7901L163.993 17.6851Z" fill="#EEEEEE"/>
<path d="M75.6145 60.4067C75.2696 60.4067 74.9936 60.1293 74.9936 59.7825V39.9475C74.9936 39.6007 75.2696 39.3233 75.6145 39.3233H82.5137C86.1702 39.3233 88.7919 42.3749 89.2058 45.9812C89.4818 48.4779 89.4818 51.1827 89.2058 53.7488C88.7919 57.3552 86.2392 60.4067 82.5137 60.4067H75.6145ZM82.5137 56.1762C83.8935 56.1762 84.7904 55.0665 84.9973 53.7488C85.2733 51.2521 85.2733 48.5473 84.9973 45.9812C84.8594 44.6635 83.8935 43.5539 82.5137 43.5539H79.478C79.2711 43.5539 79.2021 43.6926 79.2021 43.8313V55.8294C79.2021 56.0375 79.34 56.1068 79.478 56.1068H82.5137V56.1762Z" fill="#EEEEEE"/>
<path d="M97.1399 47.507C97.1399 47.7151 97.2779 47.7844 97.4158 47.7844H104.384C104.729 47.7844 105.005 48.0618 105.005 48.4086V51.3908C105.005 51.7375 104.729 52.015 104.384 52.015H97.4158C97.2089 52.015 97.1399 52.1537 97.1399 52.2924V55.8987C97.1399 56.1068 97.2779 56.1762 97.4158 56.1762H105.281C105.626 56.1762 105.902 56.4536 105.902 56.8003V59.7825C105.902 60.1293 105.626 60.4067 105.281 60.4067H93.1384C92.7934 60.4067 92.5175 60.1293 92.5175 59.7825V39.9475C92.5175 39.6007 92.7934 39.3233 93.1384 39.3233H105.143C105.488 39.3233 105.764 39.6007 105.764 39.9475V42.999C105.764 43.3458 105.488 43.6232 105.143 43.6232H97.4158C97.2089 43.6232 97.1399 43.7619 97.1399 43.9006V47.507Z" fill="#EEEEEE"/>
<path d="M115.768 51.7376C112.042 50.9054 109.075 49.2409 109.075 45.3571C109.075 41.8201 111.973 39.046 115.906 39.046C119.907 39.046 122.805 41.8201 122.805 45.3571V45.8426C122.805 46.1894 122.529 46.4668 122.184 46.4668H119.148C118.803 46.4668 118.527 46.1894 118.527 45.8426V45.3571C118.527 44.1781 117.561 43.0685 115.837 43.0685C114.181 43.0685 113.215 43.97 113.215 45.1491C113.215 46.2587 114.319 47.0216 115.906 47.299C120.045 48.1312 123.15 49.8651 123.15 54.0956C123.15 57.9794 120.114 60.6842 115.837 60.6842C111.697 60.6842 108.73 57.7714 108.73 54.0956V53.194C108.73 52.8473 109.006 52.5699 109.351 52.5699H112.387C112.732 52.5699 113.008 52.8473 113.008 53.194V54.0956C113.008 55.4827 114.043 56.5924 115.906 56.5924C117.699 56.5924 118.872 55.5521 118.872 54.0956C118.872 52.8473 117.975 52.2925 115.768 51.7376Z" fill="#EEEEEE"/>
<path d="M129.152 43.762C129.152 43.5539 129.014 43.4846 128.876 43.4846H125.909C125.564 43.4846 125.288 43.2072 125.288 42.8604V40.0169C125.288 39.6701 125.564 39.3927 125.909 39.3927H136.603C136.948 39.3927 137.224 39.6701 137.224 40.0169V42.8604C137.224 43.2072 136.948 43.4846 136.603 43.4846H133.636C133.429 43.4846 133.36 43.6233 133.36 43.762V56.1069C133.36 56.315 133.498 56.3843 133.636 56.3843H136.948C137.293 56.3843 137.569 56.6617 137.569 57.0085V59.852C137.569 60.1987 137.293 60.4762 136.948 60.4762H125.564C125.219 60.4762 124.943 60.1987 124.943 59.852V57.0085C124.943 56.6617 125.219 56.3843 125.564 56.3843H128.876C129.083 56.3843 129.152 56.2456 129.152 56.1069V43.762V43.762Z" fill="#EEEEEE"/>
<path d="M147.159 43.2765C145.365 43.2765 144.399 44.3862 144.261 45.7039C143.985 48.2006 143.985 51.5989 144.261 54.0956C144.399 55.4133 145.365 56.523 147.159 56.523C148.952 56.523 150.194 55.552 150.194 54.165V52.8473C150.194 52.6392 150.056 52.5699 149.918 52.5699H147.917C147.572 52.5699 147.297 52.2924 147.297 51.9457V49.1022C147.297 48.7554 147.572 48.478 147.917 48.478H153.782C154.127 48.478 154.403 48.7554 154.403 49.1022V54.165C154.403 57.7714 151.367 60.7535 147.297 60.7535C143.157 60.7535 140.604 57.702 140.19 54.0956C139.914 51.5989 139.914 48.2006 140.19 45.7039C140.604 42.0975 143.157 39.046 147.297 39.046C151.436 39.046 154.403 41.8894 154.403 45.9119C154.403 46.2587 154.127 46.5361 153.782 46.5361H150.815C150.47 46.5361 150.263 46.2587 150.194 45.9119C149.918 44.3862 148.814 43.2765 147.159 43.2765Z" fill="#EEEEEE"/>
<path d="M170.961 59.7825C170.961 60.1293 170.685 60.4067 170.34 60.4067H166.821C166.338 60.4067 166.131 60.1293 165.993 59.9213L161.923 49.3795C161.854 49.1715 161.647 49.2408 161.647 49.4489V59.8519C161.647 60.1987 161.371 60.4761 161.026 60.4761H158.059C157.714 60.4761 157.438 60.1987 157.438 59.8519V39.9475C157.438 39.6007 157.714 39.3233 158.059 39.3233H161.647C162.13 39.3233 162.337 39.6007 162.406 39.8781L166.476 51.3214C166.545 51.5295 166.752 51.4601 166.752 51.2521V39.9475C166.752 39.6007 167.028 39.3233 167.373 39.3233H170.34C170.685 39.3233 170.961 39.6007 170.961 39.9475V59.7825Z" fill="#EEEEEE"/>
<path d="M20.6284 3.88379C20.9734 3.88379 21.2493 3.60637 21.2493 3.25961V0.62418C21.2493 0.277413 20.9734 0 20.6284 0H3.31159H0.620922C0.275965 0 0 0.277413 0 0.62418V3.32896V20.7366C0 21.0834 0.275965 21.3608 0.620922 21.3608H3.31159C3.65654 21.3608 3.93251 21.0834 3.93251 20.7366V3.88379H20.6284Z" fill="#EEEEEE"/>
<path d="M183.379 52.6392H180.688C180.343 52.6392 180.067 52.9166 180.067 53.2633V70.0468H163.372C163.027 70.0468 162.751 70.3243 162.751 70.671V73.3758C162.751 73.7226 163.027 74 163.372 74H180.688H183.379C183.724 74 184 73.7226 184 73.3758V70.671V53.2633C184 52.9166 183.724 52.6392 183.379 52.6392Z" fill="#EEEEEE"/>
<path d="M49.1219 48.1312H41.0499V40.0169C41.0499 39.6701 40.7739 39.3927 40.429 39.3927H37.7383C37.3933 39.3927 37.1174 39.6701 37.1174 40.0169V48.1312H29.1144C28.7694 48.1312 28.4935 48.4087 28.4935 48.7554V51.4602C28.4935 51.807 28.7694 52.0844 29.1144 52.0844H37.1864V59.7826C37.1864 60.1294 37.4623 60.4068 37.8073 60.4068H40.498C40.8429 60.4068 41.1189 60.1294 41.1189 59.7826V52.015H49.1909C49.5358 52.015 49.8118 51.7376 49.8118 51.3909V48.6861C49.7428 48.4087 49.4668 48.1312 49.1219 48.1312Z" fill="#EEEEEE"/>
<path d="M183.379 52.6392H180.688C180.343 52.6392 180.067 52.9166 180.067 53.2633V70.0468H163.372C163.027 70.0468 162.751 70.3243 162.751 70.671V73.3758C162.751 73.7226 163.027 74 163.372 74H180.688H183.379C183.724 74 184 73.7226 184 73.3758V70.671V53.2633C184 52.9166 183.724 52.6392 183.379 52.6392Z" fill="#EEEEEE"/>
<g clip-path="url(#clip0)">
<path d="M106.3 132V129.3H184.3V132H106.3Z" fill="#EEEEEE"/>
<path d="M106.3 138V135.3H184.3V138H106.3Z" fill="#EEEEEE"/>
<path d="M109.7 86.7V95.9H106.7V86.7H103V84H113.4V86.7H109.7Z" fill="#EEEEEE"/>
<path d="M125.5 91.3H117.7V95.8H114.7V84H117.7V88.5H125.5V84H128.5V95.9H125.5V91.3Z" fill="#EEEEEE"/>
<path d="M130.3 95.9V84H138.7V86.7H133.2V88.7H137.6V91.2H133.2V93.2H138.7V95.9H130.3V95.9Z" fill="#EEEEEE"/>
<path d="M109.7 103.4H109.2V111H106.2V99.1H109.7L116.6 106.5H117V99.1H120V111H116.6L109.7 103.4Z" fill="#EEEEEE"/>
<path d="M121.9 111V99.1H130.3V101.8H124.8V103.8H129.2V106.3H124.8V108.3H130.3V111H121.9Z" fill="#EEEEEE"/>
<path d="M131.1 99.1H134.4L137 108.6H137.7L140 99.1H145.6L148.3 108.6H149L151.2 99.1H154.6L151.3 111H146L143.3 101.5H142.5L139.9 111H134.6L131.1 99.1Z" fill="#EEEEEE"/>
<path d="M105.6 117.9C105.6 115.4 107.6 114 110.2 114C111.7 114 113.3 114.4 114.3 114.9L113.7 117.4C112.7 116.8 111.2 116.5 110.1 116.5C109.2 116.5 108.6 116.9 108.6 117.5C108.6 119.4 114.7 118.3 114.7 122.3C114.7 124.4 113.2 126.3 110 126.3C108.6 126.3 107.1 126.1 105.9 125.5L106 122.8C107.2 123.4 108.6 123.7 110.1 123.7C111.4 123.7 111.7 123.2 111.7 122.7C111.7 121 105.6 122.1 105.6 117.9Z" fill="#EEEEEE"/>
<path d="M124.9 125.9C123.9 126.3 123.1 126.3 121.8 126.3C118.1 126.3 115.6 123.4 115.6 120.1C115.6 116.7 118.2 114 122.1 114C123.1 114 124.2 114 125.1 114.3L124.8 117C123.8 116.7 123 116.6 122.2 116.6C120 116.6 118.7 117.9 118.7 120.1C118.7 122.3 120.2 123.6 122.3 123.6C123.6 123.6 124.1 123.5 125 123.2V125.9H124.9Z" fill="#EEEEEE"/>
<path d="M137.5 121.6H129.7V126.1H126.7V114.2H129.7V118.7H137.5V114.2H140.5V126.1H137.5V121.6Z" fill="#EEEEEE"/>
<path d="M148.8 114C152.9 114 155.8 116.1 155.8 120.1C155.8 124.3 152.6 126.3 148.8 126.3C144.9 126.3 141.7 124.2 141.7 120.1C141.7 116.2 144.6 114 148.8 114ZM148.7 123.9C151 123.9 152.7 122.7 152.7 120.1C152.7 117.7 151 116.5 148.7 116.5C146.4 116.5 144.7 117.7 144.7 120.2C144.7 122.6 146.4 123.9 148.7 123.9Z" fill="#EEEEEE"/>
<path d="M163.8 114C167.9 114 170.8 116.1 170.8 120.1C170.8 124.3 167.6 126.3 163.8 126.3C159.9 126.3 156.7 124.2 156.7 120.1C156.8 116.2 159.7 114 163.8 114ZM163.8 123.9C166.1 123.9 167.8 122.7 167.8 120.1C167.8 117.7 166.1 116.5 163.8 116.5C161.5 116.5 159.8 117.7 159.8 120.2C159.8 122.6 161.5 123.9 163.8 123.9Z" fill="#EEEEEE"/>
<path d="M172.2 114.2H175.2V123.3H184.4V126.1H172.2V114.2Z" fill="#EEEEEE"/>
</g>
<defs>
<clipPath id="clip0">
<rect width="81.3" height="54" fill="white" transform="translate(103 84)"/>
</clipPath>
</defs>
</svg>
